<?xml version="1.0" standalone="no"?>
<!DOCTYPE svg PUBLIC "-//W3C//DTD SVG 20010904//EN"
 "http://www.w3.org/TR/2001/REC-SVG-20010904/DTD/svg10.dtd">
<svg version="1.0" xmlns="http://www.w3.org/2000/svg"
 width="300.000000pt" height="300.000000pt" viewBox="0 0 300.000000 300.000000"
 preserveAspectRatio="xMidYMid meet">
<metadata>
Created by potrace 1.11, written by Peter Selinger 2001-2013
</metadata>
<g transform="translate(0.000000,300.000000) scale(0.100000,-0.100000)"
fill="#000000" stroke="none">
<path d="M0 1500 l0 -1500 1500 0 1500 0 0 1500 0 1500 -1500 0 -1500 0 0
-1500z m2517 545 c69 -20 127 -85 143 -158 8 -35 11 -155 8 -372 -4 -348 -6
-363 -62 -415 -26 -24 -35 -25 -179 -30 -84 -3 -159 -9 -167 -14 -8 -5 -33
-24 -56 -42 -95 -78 -203 -95 -300 -50 -28 13 -55 29 -59 36 -4 7 -28 25 -53
41 l-46 29 -237 0 c-141 0 -249 -4 -265 -10 -15 -6 -44 -26 -65 -45 -66 -59
-95 -70 -189 -70 -94 0 -123 11 -189 70 -54 49 -78 55 -219 55 -150 0 -184 12
-216 75 -20 38 -21 59 -24 390 l-3 350 28 54 c31 60 58 85 119 106 61 22 1958
22 2031 0z"/>
<path d="M540 1897 c-47 -24 -50 -42 -50 -344 0 -243 2 -284 16 -297 12 -13
38 -16 118 -16 172 0 192 -5 235 -60 20 -26 49 -56 65 -65 59 -36 152 -12 184
47 39 73 14 69 399 66 l346 -3 31 -44 c45 -63 75 -83 129 -83 55 -1 86 17 128
75 17 23 38 46 47 52 9 5 82 12 162 15 142 5 145 5 156 30 8 18 10 107 6 308
-4 251 -7 286 -22 305 l-18 22 -954 2 c-753 2 -958 0 -978 -10z"/>
</g>
</svg>
